<svg width="31" height="52" viewBox="0 0 31 52" fill="none" xmlns="http://www.w3.org/2000/svg">
<path d="M2.66491 25.6281L6.51241 13.6805C6.81355 12.7454 7.68371 12.1115 8.66612 12.1115H16.3752C16.4819 12.1115 16.5817 12.1641 16.642 12.2521L23.7984 22.7098C27.404 27.9789 29.3333 34.2145 29.3333 40.5991V48.4142C29.3333 49.8423 28.1756 51.0001 26.7475 51.0001H3.58586C2.15773 51.0001 1 49.8423 1 48.4142V36.2297C1 32.6307 1.56173 29.0538 2.66491 25.6281Z" fill="#05065C" stroke="#05065C" stroke-width="1.4" stroke-linecap="round" stroke-linejoin="round"/>
<path d="M19.0533 7.56561H6.01494V4.87879C6.01494 2.73659 7.75153 1 9.89372 1H19.0533V7.56561Z" fill="#05065C" stroke="#05065C" stroke-width="1.4" stroke-linecap="round" stroke-linejoin="round"/>
<path d="M15.0417 8.07092V11.6063" stroke="#05065C" stroke-width="1.4"/>
<path d="M24.2716 25.9998L4.10288 25.9998" stroke="white" stroke-width="1.4" stroke-linecap="round" stroke-linejoin="round"/>
<path d="M27.3745 38.4998L1.00004 38.4998" stroke="white" stroke-width="1.4" stroke-linecap="round" stroke-linejoin="round"/>
<path d="M10.0268 8.07092V11.6063" stroke="#05065C" stroke-width="1.4"/>
<path d="M19.5157 2.5625H22.1015V5.68748H19.5157" stroke="#05065C" stroke-width="1.4" stroke-linejoin="round"/>
</svg>
