<svg width="31" height="53" viewBox="0 0 31 53" fill="none" xmlns="http://www.w3.org/2000/svg">
<path d="M2.99826 26.2948L6.84576 14.3471C7.14689 13.412 8.01705 12.7781 8.99946 12.7781H16.7086C16.8153 12.7781 16.9151 12.8307 16.9753 12.9188L24.1317 23.3765C27.7374 28.6455 29.6667 34.8811 29.6667 41.2657V49.0808C29.6667 50.509 28.5089 51.6667 27.0808 51.6667H3.9192C2.49107 51.6667 1.33334 50.509 1.33334 49.0808V36.8963C1.33334 33.2974 1.89507 29.7205 2.99826 26.2948Z" stroke="#B3B3B3" stroke-width="1.4" stroke-linecap="round" stroke-linejoin="round"/>
<path d="M19.3866 8.23224H6.34827V5.54541C6.34827 3.40322 8.08486 1.66663 10.2271 1.66663H19.3866V8.23224Z" stroke="#B3B3B3" stroke-width="1.4" stroke-linecap="round" stroke-linejoin="round"/>
<path d="M15.3751 8.73755V12.2729" stroke="#B3B3B3" stroke-width="1.4"/>
<path d="M24.6049 26.6664L4.43622 26.6664" stroke="#B3B3B3" stroke-width="1.4" stroke-linecap="round" stroke-linejoin="round"/>
<path d="M27.7078 39.1664L1.33337 39.1664" stroke="#B3B3B3" stroke-width="1.4" stroke-linecap="round" stroke-linejoin="round"/>
<path d="M10.3602 8.73755V12.2729" stroke="#B3B3B3" stroke-width="1.4"/>
<path d="M19.8491 3.22913H22.4348V6.3541H19.8491" stroke="#B3B3B3" stroke-width="1.4" stroke-linejoin="round"/>
</svg>
