<svg width="47" height="47" viewBox="0 0 47 47" fill="none" xmlns="http://www.w3.org/2000/svg">
<path d="M23.5 4.10345V1" stroke="#B2B2B2" stroke-width="1.4" stroke-linecap="round" stroke-linejoin="round"/>
<path d="M21.1724 1L25.8276 1" stroke="#B2B2B2" stroke-width="1.4" stroke-linecap="round" stroke-linejoin="round"/>
<path d="M23.5 42.8965L23.5 46" stroke="#B2B2B2" stroke-width="1.4" stroke-linecap="round" stroke-linejoin="round"/>
<path d="M25.8276 46L21.1724 46" stroke="#B2B2B2" stroke-width="1.4" stroke-linecap="round" stroke-linejoin="round"/>
<path d="M42.8965 23.5L46 23.5" stroke="#B2B2B2" stroke-width="1.4" stroke-linecap="round" stroke-linejoin="round"/>
<path d="M46 21.1724L46 25.8276" stroke="#B2B2B2" stroke-width="1.4" stroke-linecap="round" stroke-linejoin="round"/>
<path d="M4.10345 23.5L1 23.5" stroke="#B2B2B2" stroke-width="1.4" stroke-linecap="round" stroke-linejoin="round"/>
<path d="M1 25.8276L1 21.1724" stroke="#B2B2B2" stroke-width="1.4" stroke-linecap="round" stroke-linejoin="round"/>
<path d="M13.8021 6.7017L12.2504 4.01404" stroke="#B2B2B2" stroke-width="1.4" stroke-linecap="round" stroke-linejoin="round"/>
<path d="M10.2346 5.17787L14.2661 2.85028" stroke="#B2B2B2" stroke-width="1.4" stroke-linecap="round" stroke-linejoin="round"/>
<path d="M33.1979 40.2983L34.7496 42.986" stroke="#B2B2B2" stroke-width="1.4" stroke-linecap="round" stroke-linejoin="round"/>
<path d="M36.7654 41.8221L32.7339 44.1497" stroke="#B2B2B2" stroke-width="1.4" stroke-linecap="round" stroke-linejoin="round"/>
<path d="M40.2975 13.8021L42.9852 12.2504" stroke="#B2B2B2" stroke-width="1.4" stroke-linecap="round" stroke-linejoin="round"/>
<path d="M41.8214 10.2346L44.149 14.2661" stroke="#B2B2B2" stroke-width="1.4" stroke-linecap="round" stroke-linejoin="round"/>
<path d="M6.7025 33.198L4.01483 34.7497" stroke="#B2B2B2" stroke-width="1.4" stroke-linecap="round" stroke-linejoin="round"/>
<path d="M5.17863 36.7654L2.85104 32.7339" stroke="#B2B2B2" stroke-width="1.4" stroke-linecap="round" stroke-linejoin="round"/>
<path d="M6.7025 13.8014L4.01483 12.2497" stroke="#B2B2B2" stroke-width="1.4" stroke-linecap="round" stroke-linejoin="round"/>
<path d="M2.85103 14.2654L5.17862 10.2339" stroke="#B2B2B2" stroke-width="1.4" stroke-linecap="round" stroke-linejoin="round"/>
<path d="M40.2975 33.1986L42.9852 34.7504" stroke="#B2B2B2" stroke-width="1.4" stroke-linecap="round" stroke-linejoin="round"/>
<path d="M44.149 32.7346L41.8214 36.7661" stroke="#B2B2B2" stroke-width="1.4" stroke-linecap="round" stroke-linejoin="round"/>
<path d="M33.1979 6.7025L34.7496 4.01483" stroke="#B2B2B2" stroke-width="1.4" stroke-linecap="round" stroke-linejoin="round"/>
<path d="M32.7338 2.851L36.7653 5.17859" stroke="#B2B2B2" stroke-width="1.4" stroke-linecap="round" stroke-linejoin="round"/>
<path d="M13.8022 40.2975L12.2504 42.9852" stroke="#B2B2B2" stroke-width="1.4" stroke-linecap="round" stroke-linejoin="round"/>
<path d="M14.2662 44.149L10.2347 41.8214" stroke="#B2B2B2" stroke-width="1.4" stroke-linecap="round" stroke-linejoin="round"/>
<path d="M42.1966 23.5C42.1966 33.8258 33.8258 42.1966 23.5 42.1966C13.1742 42.1966 4.80345 33.8258 4.80345 23.5C4.80345 13.1742 13.1742 4.80345 23.5 4.80345C33.8258 4.80345 42.1966 13.1742 42.1966 23.5Z" stroke="#B2B2B2" stroke-width="1.4"/>
<circle cx="22.7241" cy="22.7242" r="2.40345" stroke="#B2B2B2" stroke-width="1.4"/>
<circle cx="22.7241" cy="11.8621" r="2.40345" stroke="#B2B2B2" stroke-width="1.4"/>
<circle cx="24.2759" cy="33.5862" r="3.95517" stroke="#B2B2B2" stroke-width="1.4"/>
<circle cx="14.0932" cy="18.0685" r="1.85569" transform="rotate(-60 14.0932 18.0685)" stroke="#B2B2B2" stroke-width="1.4"/>
<path d="M35.1233 25.9711C36.1238 26.5487 36.4666 27.8281 35.889 28.8285C35.3113 29.829 34.032 30.1718 33.0316 29.5942C32.0311 29.0165 31.6883 27.7372 32.2659 26.7368C32.8435 25.7363 34.1229 25.3935 35.1233 25.9711Z" stroke="#B2B2B2" stroke-width="1.4"/>
<path d="M13.3939 27.7192C14.0631 27.3328 14.9187 27.5621 15.305 28.2312C15.6914 28.9004 15.4621 29.756 14.7929 30.1424C14.1238 30.5287 13.2682 30.2994 12.8818 29.6303C12.4955 28.9611 12.7248 28.1055 13.3939 27.7192Z" stroke="#B2B2B2" stroke-width="1.4"/>
<path d="M31.317 15.3156C32.8376 14.4376 34.782 14.9586 35.66 16.4793C36.5379 17.9999 36.0169 19.9443 34.4963 20.8223C32.9756 21.7002 31.0312 21.1792 30.1533 19.6586C29.2753 18.1379 29.7963 16.1935 31.317 15.3156Z" stroke="#B2B2B2" stroke-width="1.4"/>
</svg>
