<svg width="61" height="35" viewBox="0 0 61 35" fill="none" xmlns="http://www.w3.org/2000/svg">
<path d="M19.7544 29.3636H14.614C14.0618 29.3636 13.614 28.9159 13.614 28.3636V2.33331C13.614 1.78103 14.0618 1.33331 14.614 1.33331H42.5482C43.1005 1.33331 43.5482 1.78103 43.5482 2.33331V28.3636C43.5482 28.9159 43.1005 29.3636 42.5482 29.3636H26.6623" stroke="#B2B2B2" stroke-width="1.4" stroke-linejoin="round"/>
<path d="M55.829 29.3636H59.6667V12.6363C59.6667 9.32258 56.9804 6.63629 53.6667 6.63629H43.5483" stroke="#B2B2B2" stroke-width="1.4" stroke-linejoin="round"/>
<path d="M48.1535 29.3636L41.2456 29.3636" stroke="#B2B2B2" stroke-width="1.4"/>
<path d="M9.00877 8.90906L1.33334 8.90906" stroke="#B2B2B2" stroke-width="1.4" stroke-linecap="round" stroke-linejoin="round"/>
<path d="M9.00877 14.9697L2.86842 14.9697" stroke="#B2B2B2" stroke-width="1.4" stroke-linecap="round" stroke-linejoin="round"/>
<path d="M9.00877 21.0303H4.4035" stroke="#B2B2B2" stroke-width="1.4" stroke-linecap="round" stroke-linejoin="round"/>
<path d="M26.7298 30.1212C26.7298 32.2364 24.99 33.9667 22.8246 33.9667C20.6591 33.9667 18.9193 32.2364 18.9193 30.1212C18.9193 28.006 20.6591 26.2757 22.8246 26.2757C24.99 26.2757 26.7298 28.006 26.7298 30.1212Z" stroke="#B2B2B2" stroke-width="1.4"/>
<path d="M55.8965 30.1212C55.8965 32.2364 54.1567 33.9667 51.9912 33.9667C49.8258 33.9667 48.086 32.2364 48.086 30.1212C48.086 28.006 49.8258 26.2757 51.9912 26.2757C54.1567 26.2757 55.8965 28.006 55.8965 30.1212Z" stroke="#B2B2B2" stroke-width="1.4"/>
</svg>
