<svg width="44" height="42" viewBox="0 0 44 42" fill="none" xmlns="http://www.w3.org/2000/svg">
<path d="M4.90625 1L23.7865 17.0001" stroke="#B2B2B2" stroke-width="1.4" stroke-linecap="round" stroke-linejoin="round"/>
<path d="M23.7865 16.9998L28.9948 12.3331V5.66638L32.901 9.66641L41.3322 13.1199C42.0906 13.4305 42.4916 14.2639 42.2612 15.0503L40.7135 20.3332H36.1563L32.25 24.3332M23.7865 16.9998H5.26604C4.61965 16.9998 4.00059 16.7391 3.54897 16.2766L1 13.6664L2.95313 20.9998L4.8018 26.679C5.27615 28.1362 5.02061 29.7327 4.11509 30.969V30.969C2.54431 33.1137 1.94083 35.817 2.45041 38.4261L2.95313 41H5.55729L6.45618 36.3977C6.72049 35.0444 7.33007 33.7824 8.22579 32.7342L10.9376 29.5605C11.2416 29.2048 11.6861 28.9999 12.1541 28.9999H24.6216C25.2931 28.9999 25.8931 29.4192 26.124 30.0497L27.2048 33.001C27.5276 33.8823 27.6927 34.8135 27.6927 35.752V41H30.9479L32.25 24.3332M23.7865 16.9998L32.25 24.3332" stroke="#B2B2B2" stroke-width="1.4" stroke-linecap="round" stroke-linejoin="round"/>
</svg>
