<svg width="44" height="43" viewBox="0 0 44 43" fill="none" xmlns="http://www.w3.org/2000/svg">
<path d="M5.57291 1.66669L24.4531 17.6668" stroke="#05065C" stroke-width="1.4" stroke-linecap="round" stroke-linejoin="round"/>
<path d="M24.4531 17.6665L29.6615 12.9998V6.33307L33.5677 10.3331L41.9989 13.7866C42.7572 14.0972 43.1583 14.9306 42.9279 15.717L41.3802 20.9999H36.8229L32.9167 24.9999L31.6146 41.6667H28.3594V36.4187C28.3594 35.4802 28.1942 34.549 27.8715 33.6677L26.7907 30.7164C26.5598 30.0859 25.9597 29.6666 25.2883 29.6666H12.8207C12.3528 29.6666 11.9083 29.8714 11.6043 30.2272L8.89245 33.4009C7.99673 34.4491 7.38714 35.7111 7.12284 37.0644L6.22395 41.6667H3.61978L3.11706 39.0928C2.60748 36.4837 3.21096 33.7804 4.78175 31.6357C5.68726 30.3994 5.94281 28.8029 5.46846 27.3457L3.61978 21.6665L1.66666 14.3331L4.21563 16.9433C4.66724 17.4058 5.2863 17.6665 5.93269 17.6665H24.4531Z" fill="#05065C"/>
<path d="M24.4531 17.6665L29.6615 12.9998V6.33307L33.5677 10.3331L41.9989 13.7866C42.7572 14.0972 43.1583 14.9306 42.9279 15.717L41.3802 20.9999H36.8229L32.9167 24.9999M24.4531 17.6665H5.93269C5.2863 17.6665 4.66724 17.4058 4.21563 16.9433L1.66666 14.3331L3.61978 21.6665L5.46846 27.3457C5.94281 28.8029 5.68726 30.3994 4.78175 31.6357V31.6357C3.21096 33.7804 2.60748 36.4837 3.11706 39.0928L3.61978 41.6667H6.22395L7.12284 37.0644C7.38714 35.7111 7.99673 34.4491 8.89245 33.4009L11.6043 30.2272C11.9083 29.8714 12.3528 29.6666 12.8207 29.6666H25.2883C25.9597 29.6666 26.5598 30.0859 26.7907 30.7164L27.8715 33.6677C28.1942 34.549 28.3594 35.4802 28.3594 36.4187V41.6667H31.6146L32.9167 24.9999M24.4531 17.6665L32.9167 24.9999" stroke="#05065C" stroke-width="1.4" stroke-linecap="round" stroke-linejoin="round"/>
</svg>
