<svg width="37" height="44" viewBox="0 0 37 44" fill="none" xmlns="http://www.w3.org/2000/svg">
<path d="M16.0424 11.1209L18.5 11.9229L20.9577 11.1209C28.3783 8.69921 36 14.2292 36 22.035C36 23.84 35.6217 25.625 34.8894 27.2749L30.5402 37.0732C28.9551 40.6444 24.9502 42.4666 21.2164 41.3154L18.7525 40.5557C18.588 40.505 18.412 40.505 18.2475 40.5557L15.7836 41.3154C12.0498 42.4666 8.04493 40.6444 6.45979 37.0732L2.11065 27.2748C1.37835 25.625 1 23.84 1 22.035C1 14.2293 8.62175 8.69921 16.0424 11.1209Z" fill="#05065C" stroke="#05065C" stroke-width="1.4"/>
<path d="M22.6667 1.66663C21.5556 2.50838 18.5 6.33837 18.5 11.3889" stroke="#05065C" stroke-width="1.4" stroke-linecap="round" stroke-linejoin="round"/>
<path d="M15.3624 5.37234L16.2381 9.24243L11.4941 7.84477C10.0818 7.42871 8.98202 6.31689 8.58131 4.90023L8.00869 2.87577C7.84433 2.29472 8.31628 1.73042 8.91724 1.78944L11.6012 2.05301C13.4391 2.23351 14.9548 3.57109 15.3624 5.37234Z" fill="#05065C" stroke="#05065C" stroke-width="1.4"/>
</svg>
