<svg width="47" height="47" viewBox="0 0 47 47" fill="none" xmlns="http://www.w3.org/2000/svg">
<path d="M5.42005 30.6044L4.10068 31.9237C2.38822 33.6362 2.38822 36.4126 4.10068 38.1251C4.12097 38.1454 4.15299 38.148 4.17625 38.1311L9.29088 34.4372C9.57306 34.2335 9.96142 34.2646 10.2075 34.5107L12.0973 36.4005C12.3435 36.6466 12.3746 37.035 12.1708 37.3172L8.48053 42.4267C8.46163 42.4529 8.46452 42.4889 8.48735 42.5118C10.4139 44.4383 13.5374 44.4383 15.4639 42.5118L16.3054 41.6702C18.11 39.8657 18.6982 37.1753 17.8115 34.7823L17.4054 33.6866C17.3771 33.61 17.3959 33.524 17.4536 33.4663L33.4663 17.4536C33.524 17.3959 33.61 17.3771 33.6865 17.4054L34.7823 17.8115C37.1753 18.6982 39.8656 18.11 41.6702 16.3054L42.5117 15.4639C44.4383 13.5374 44.4382 10.4139 42.5117 8.48737C42.4889 8.46454 42.4529 8.46165 42.4267 8.48056L37.3171 12.1708C37.035 12.3746 36.6466 12.3435 36.4005 12.0974L34.5107 10.2076C34.2646 9.96144 34.2334 9.57308 34.4372 9.29091L38.1311 4.17628C38.1479 4.15301 38.1454 4.12099 38.1251 4.1007C36.4126 2.38825 33.6362 2.38824 31.9237 4.1007L30.6043 5.42008C28.841 7.18341 28.209 9.78333 28.9662 12.1593L29.2122 12.9311C29.2349 13.0023 29.2159 13.0803 29.163 13.1332L13.1331 29.1631C13.0803 29.2159 13.0023 29.2349 12.931 29.2122L12.1593 28.9662C9.78331 28.2091 7.18338 28.841 5.42005 30.6044Z" stroke="#B2B2B2" stroke-width="1.4" stroke-linecap="round" stroke-linejoin="round"/>
<path d="M23.521 28.6407L33.1077 40.5111C33.8131 41.3846 34.9475 41.7912 36.0475 41.5647L36.1132 41.5512C38.8529 40.9871 40.9938 38.8468 41.558 36.108L41.5716 36.0422C41.7981 34.9426 41.3915 33.8086 40.5177 33.1033L28.6437 23.5195" stroke="#B2B2B2" stroke-width="1.4"/>
<path d="M19.2739 22.0221L10.9847 13.7329L8.69301 13.661C8.35543 13.6504 8.04601 13.4701 7.87032 13.1817L4.7312 8.02817L8.02388 4.73549L13.1774 7.87461C13.4658 8.0503 13.6461 8.35972 13.6567 8.6973L13.7286 10.989L22.0178 19.2782" stroke="#B2B2B2" stroke-width="1.4"/>
</svg>
