<svg width="40" height="52" viewBox="0 0 40 52" fill="none" xmlns="http://www.w3.org/2000/svg">
<path d="M1.34351 51.1L4.59549 14.9086H35.4045L38.6565 51.1H1.34351Z" fill="#05065C" stroke="#05065C" stroke-width="1.4"/>
<path d="M27.6 19.1118L26.7386 7.39466C26.4791 3.86473 23.5395 1.1333 20 1.1333V1.1333C16.4606 1.1333 13.521 3.86473 13.2614 7.39466L12.4 19.1118" stroke="#05065C" stroke-width="1.4"/>
<path d="M15.0778 20.7462C15.0778 22.1435 13.9007 23.315 12.4 23.315C10.8993 23.315 9.72225 22.1435 9.72225 20.7462C9.72225 19.349 10.8993 18.1774 12.4 18.1774C13.9007 18.1774 15.0778 19.349 15.0778 20.7462Z" stroke="white" stroke-width="1.4"/>
<path d="M30.2778 20.7462C30.2778 22.1435 29.1007 23.315 27.6 23.315C26.0993 23.315 24.9222 22.1435 24.9222 20.7462C24.9222 19.349 26.0993 18.1774 27.6 18.1774C29.1007 18.1774 30.2778 19.349 30.2778 20.7462Z" stroke="white" stroke-width="1.4"/>
</svg>
