<svg width="16" height="16" viewBox="0 0 16 16" fill="none" xmlns="http://www.w3.org/2000/svg">
<path fill-rule="evenodd" clip-rule="evenodd" d="M8.9366 8.00183L12.4633 4.47516C12.7233 4.21516 12.7233 3.79516 12.4633 3.53516C12.2033 3.27516 11.7833 3.27516 11.5233 3.53516L7.9966 7.06183L4.46996 3.5285C4.20996 3.2685 3.78996 3.2685 3.52996 3.5285C3.26996 3.7885 3.26996 4.2085 3.52996 4.4685L7.0566 8.00183L3.52996 11.5285C3.26996 11.7885 3.26996 12.2085 3.52996 12.4685C3.65663 12.6018 3.82329 12.6685 3.99663 12.6685C4.16996 12.6685 4.33663 12.6018 4.46996 12.4752L7.9966 8.94183L11.5233 12.4685C11.6566 12.6018 11.8233 12.6685 11.9966 12.6685C12.1699 12.6685 12.3366 12.6018 12.4699 12.4752C12.7299 12.2152 12.7299 11.7952 12.4699 11.5352L8.9366 8.00183Z" fill="#2845EA"/>
</svg>
