<svg width="24" height="24" viewBox="0 0 24 24" fill="none" xmlns="http://www.w3.org/2000/svg">
<path fill-rule="evenodd" clip-rule="evenodd" d="M7.60178 11.5515C7.35411 11.7716 7.3318 12.1508 7.55195 12.3985L10.2186 15.3985C10.3325 15.5266 10.4957 15.5999 10.6671 15.5999C10.8384 15.5999 11.0017 15.5266 11.1155 15.3985L16.4488 9.39853C16.669 9.15086 16.6467 8.77162 16.399 8.55146C16.1513 8.33131 15.7721 8.35362 15.552 8.60129L10.6671 14.0968L8.44885 11.6013C8.22869 11.3536 7.84945 11.3313 7.60178 11.5515Z" fill="#467599"/>
<path fill-rule="evenodd" clip-rule="evenodd" d="M3 11.6C3 6.85035 6.85035 3 11.6 3C16.3497 3 20.2 6.85035 20.2 11.6C20.2 16.3497 16.3497 20.2 11.6 20.2C6.85035 20.2 3 16.3497 3 11.6ZM11.6 4.2C7.51309 4.2 4.2 7.51309 4.2 11.6C4.2 15.6869 7.51309 19 11.6 19C15.6869 19 19 15.6869 19 11.6C19 7.51309 15.6869 4.2 11.6 4.2Z" fill="#467599"/>
</svg>
