<svg width="24" height="24" viewBox="0 0 24 24" fill="none" xmlns="http://www.w3.org/2000/svg">
<path fill-rule="evenodd" clip-rule="evenodd" d="M13.3147 3.57741C12.7448 2.54125 11.256 2.54125 10.6861 3.57741L2.22297 18.9648C1.67315 19.9645 2.39639 21.1877 3.53729 21.1877H20.4635C21.6044 21.1877 22.3276 19.9645 21.7778 18.9648L13.3147 3.57741ZM12.3506 4.32194C12.1984 4.0464 11.8024 4.0464 11.6502 4.32194L3.328 19.3944C3.1808 19.661 3.37364 19.9877 3.67817 19.9877H20.3226C20.6271 19.9877 20.82 19.661 20.6728 19.3944L12.3506 4.32194Z" fill="#FAD682"/>
<path d="M11.2504 17.5V17C11.2504 16.5858 11.5862 16.25 12.0004 16.25C12.4146 16.25 12.7504 16.5858 12.7504 17V17.5C12.7504 17.9142 12.4146 18.25 12.0004 18.25C11.5862 18.25 11.2504 17.9142 11.2504 17.5Z" fill="#FAD682"/>
<path d="M11.2504 14.5V9.00002C11.2504 8.58581 11.5862 8.25002 12.0004 8.25002C12.4146 8.25002 12.7504 8.58581 12.7504 9.00002V14.5C12.7504 14.9142 12.4146 15.25 12.0004 15.25C11.5862 15.25 11.2504 14.9142 11.2504 14.5Z" fill="#FAD682"/>
</svg>
