<svg width="29" height="27" viewBox="0 0 29 27" fill="none" xmlns="http://www.w3.org/2000/svg">
<path d="M13.8147 1.58626C10.1802 -0.928284 6.06528 -0.227546 3.30417 2.10987C0.551072 4.4405 -0.928221 8.45297 0.638572 12.588C1.16886 13.9876 1.87889 15.345 2.83586 16.5547C4.88683 19.1475 9.27828 24.2551 14.0226 26.8481C14.2181 26.955 14.3712 27.004 14.5 26.9998C14.6288 27.004 14.7819 26.955 14.9774 26.8481C19.7217 24.2551 24.1132 19.1475 26.1641 16.5547C27.1211 15.345 27.8311 13.9876 28.3614 12.588C29.9282 8.45297 28.4489 4.4405 25.6958 2.10987C22.9347 -0.227546 18.8198 -0.928284 15.1853 1.58626C14.9403 1.75577 14.7098 1.91802 14.5 2.06982C14.2902 1.91802 14.0597 1.75577 13.8147 1.58626Z" fill="#E4405F"/>
</svg>
