<svg width="30" height="35" viewBox="0 0 30 35" fill="none" xmlns="http://www.w3.org/2000/svg">
<path d="M6.22857 18.2933L7.99999 21.6V5.5C7.99999 4.11929 9.11928 3 10.5 3C11.8807 3 13 4.11929 13 5.5V3.75C13 2.23122 14.2312 1 15.75 1C17.2688 1 18.5 2.23122 18.5 3.75V5.75C18.5 4.23122 19.7312 3 21.25 3C22.7688 3 24 4.23122 24 5.75V10.3714C24 8.99072 25.1193 7.87143 26.5 7.87143C27.8807 7.87143 29 8.99072 29 10.3714V23.5C29 29.299 24.299 34 18.5 34H14.3877C10.1757 34 6.33458 31.5915 4.49999 27.8L1.2182 20.8092C0.549782 19.3854 1.18295 17.6904 2.62114 17.0535C3.9628 16.4593 5.53566 16.9999 6.22857 18.2933Z" fill="#5ACAF5"/>
<path d="M24 17.2857V10.3714C24 8.99072 25.1193 7.87143 26.5 7.87143C27.8807 7.87143 29 8.99072 29 10.3714V23.5C29 29.299 24.299 34 18.5 34H14.3877C10.1757 34 6.33458 31.5915 4.49999 27.8L1.2182 20.8092C0.549782 19.3854 1.18295 17.6904 2.62114 17.0535C3.9628 16.4593 5.53566 16.9999 6.22857 18.2933L7.99999 21.6V5.5C7.99999 4.11929 9.11928 3 10.5 3C11.8807 3 13 4.11929 13 5.5V6.1M18.5 16V5.75C18.5 4.23122 19.7312 3 21.25 3C22.7688 3 24 4.23122 24 5.75V10.5M13 16V3.75C13 2.23122 14.2312 1 15.75 1C17.2688 1 18.5 2.23122 18.5 3.75V6.5" stroke="white" stroke-width="0.2" stroke-linecap="round" stroke-linejoin="round"/>
</svg>
